<svg width="28" height="28" viewBox="0 0 28 28" fill="none" xmlns="http://www.w3.org/2000/svg">
<g id="instagram">
<path id="Vector" d="M19.8333 2.33325H8.16666C4.945 2.33325 2.33333 4.94492 2.33333 8.16659V19.8333C2.33333 23.0549 4.945 25.6666 8.16666 25.6666H19.8333C23.055 25.6666 25.6667 23.0549 25.6667 19.8333V8.16659C25.6667 4.94492 23.055 2.33325 19.8333 2.33325Z" stroke="#0D121E" stroke-width="2.33333" stroke-linecap="round" stroke-linejoin="round"/>
<path id="Vector_2" d="M18.6667 13.2651C18.8106 14.2361 18.6448 15.2277 18.1927 16.099C17.7406 16.9702 17.0253 17.6768 16.1486 18.1181C15.2718 18.5594 14.2782 18.713 13.3091 18.557C12.34 18.4011 11.4447 17.9435 10.7506 17.2495C10.0566 16.5554 9.59902 15.6601 9.44308 14.691C9.28714 13.7219 9.44074 12.7283 9.88205 11.8515C10.3234 10.9748 11.0299 10.2595 11.9011 9.80739C12.7724 9.35531 13.764 9.18946 14.735 9.33344C15.7254 9.48031 16.6423 9.94181 17.3503 10.6498C18.0583 11.3578 18.5198 12.2747 18.6667 13.2651Z" stroke="#0D121E" stroke-width="2.33333" stroke-linecap="round" stroke-linejoin="round"/>
<path id="Vector_3" d="M20.4167 7.58325H20.4279" stroke="#0D121E" stroke-width="2.33333" stroke-linecap="round" stroke-linejoin="round"/>
</g>
</svg>
