<svg width="20" height="20" viewBox="0 0 20 20" fill="none" xmlns="http://www.w3.org/2000/svg">
<path id="Vector" d="M17.1429 1.42851H16.4286V0.73431C16.4286 0.349935 16.133 0.0200241 15.7487 0.000827669C15.6521 -0.00382555 15.5556 0.0111777 15.465 0.0449285C15.3743 0.0786792 15.2915 0.130475 15.2215 0.197176C15.1515 0.263878 15.0958 0.344097 15.0577 0.432973C15.0196 0.521848 15 0.61753 15 0.714221V1.42851H5V0.73431C5 0.349935 4.70446 0.0200241 4.32009 0.000827669C4.22351 -0.00382555 4.12699 0.0111777 4.03639 0.0449285C3.94578 0.0786792 3.86296 0.130475 3.79296 0.197176C3.72297 0.263878 3.66724 0.344097 3.62916 0.432973C3.59108 0.521848 3.57144 0.61753 3.57143 0.714221V1.42851H2.85714C2.09938 1.42851 1.37266 1.72953 0.836838 2.26534C0.30102 2.80116 0 3.52789 0 4.28565V4.82136C0 4.86872 0.0188138 4.91414 0.0523024 4.94763C0.085791 4.98112 0.131211 4.99994 0.178571 4.99994H19.8214C19.8688 4.99994 19.9142 4.98112 19.9477 4.94763C19.9812 4.91414 20 4.86872 20 4.82136V4.28565C20 3.52789 19.699 2.80116 19.1632 2.26534C18.6273 1.72953 17.9006 1.42851 17.1429 1.42851ZM19.8214 6.42851H0.178571C0.131211 6.42851 0.085791 6.44732 0.0523024 6.48081C0.0188138 6.5143 0 6.55972 0 6.60708V17.1428C0 17.9006 0.30102 18.6273 0.836838 19.1631C1.37266 19.6989 2.09938 19.9999 2.85714 19.9999H17.1429C17.9006 19.9999 18.6273 19.6989 19.1632 19.1631C19.699 18.6273 20 17.9006 20 17.1428V6.60708C20 6.55972 19.9812 6.5143 19.9477 6.48081C19.9142 6.44732 19.8688 6.42851 19.8214 6.42851ZM9.26696 16.4776C8.72366 16.9066 7.98348 17.1428 7.18214 17.1428C5.93795 17.1428 5.01786 16.3321 4.60804 15.6383C4.51154 15.4752 4.48381 15.2804 4.53094 15.0968C4.57808 14.9132 4.69622 14.7558 4.85938 14.6593C5.02253 14.5628 5.21734 14.5351 5.40094 14.5822C5.58454 14.6294 5.7419 14.7475 5.83839 14.9106C5.88661 14.9928 6.33616 15.7142 7.18214 15.7142C7.92589 15.7142 8.79464 15.3888 8.79464 14.4723C8.79464 14.1932 8.74018 13.8048 8.48214 13.5401C8.10089 13.1499 7.46652 12.9745 7.13795 12.9745C6.94851 12.9745 6.76683 12.8992 6.63287 12.7653C6.49892 12.6313 6.42366 12.4496 6.42366 12.2602C6.42366 12.0708 6.49892 11.8891 6.63287 11.7551C6.76683 11.6212 6.94851 11.5459 7.13795 11.5459C7.35446 11.5459 7.91518 11.4298 8.26652 11.0705C8.36157 10.977 8.43659 10.8651 8.48702 10.7417C8.53744 10.6183 8.56221 10.4859 8.55982 10.3526C8.55982 9.31556 7.2817 9.28565 7.13616 9.28565C6.36205 9.28565 6.07366 9.75931 6.06161 9.7794C6.0152 9.8626 5.95262 9.93568 5.87755 9.99433C5.80247 10.053 5.71643 10.096 5.62447 10.1209C5.53251 10.1458 5.4365 10.1521 5.34209 10.1393C5.24768 10.1265 5.15678 10.095 5.07474 10.0466C4.99269 9.99818 4.92116 9.93384 4.86436 9.85735C4.80756 9.78087 4.76663 9.6938 4.74398 9.60126C4.72133 9.50872 4.71743 9.41259 4.73249 9.31852C4.74756 9.22445 4.78129 9.13435 4.8317 9.05351C5.17277 8.47315 5.95759 7.85708 7.13616 7.85708C7.87009 7.85708 8.55402 8.07002 9.06161 8.45618C9.65938 8.91154 9.98839 9.58476 9.98839 10.3526C9.99041 10.671 9.92935 10.9865 9.80874 11.2812C9.68814 11.5758 9.51038 11.8436 9.28571 12.0691C9.23438 12.1218 9.18036 12.1709 9.12545 12.2187C9.25956 12.3156 9.3853 12.4235 9.50134 12.5415C9.97277 13.0236 10.2219 13.691 10.2219 14.4723C10.2232 15.2785 9.88348 15.9906 9.26696 16.4776ZM15 16.2499C15 16.4394 14.9247 16.6211 14.7908 16.755C14.6568 16.889 14.4752 16.9642 14.2857 16.9642C14.0963 16.9642 13.9146 16.889 13.7806 16.755C13.6467 16.6211 13.5714 16.4394 13.5714 16.2499V10.0129L12.5665 10.7535C12.491 10.8092 12.4053 10.8495 12.3142 10.872C12.2231 10.8946 12.1285 10.899 12.0357 10.885C11.9429 10.871 11.8538 10.8388 11.7735 10.7904C11.6931 10.7419 11.6231 10.6781 11.5674 10.6026C11.5117 10.5271 11.4714 10.4414 11.4489 10.3503C11.4263 10.2592 11.4219 10.1646 11.4359 10.0718C11.4499 9.97903 11.4821 9.88993 11.5305 9.80958C11.579 9.72922 11.6428 9.6592 11.7183 9.60351L13.6567 8.17493C13.7794 8.08448 13.9279 8.03567 14.0804 8.03565H14.2857C14.4752 8.03565 14.6568 8.1109 14.7908 8.24486C14.9247 8.37881 15 8.56049 15 8.74994V16.2499Z" fill="black"/>
</svg>
