<svg width="29" height="29" viewBox="0 0 29 29" fill="none" xmlns="http://www.w3.org/2000/svg">
<g id="&#240;&#159;&#166;&#134; icon &#34;close&#34;">
<path id="Vector" d="M18.1175 14.5L28.2431 4.37442C28.7236 3.89471 28.9939 3.24375 28.9945 2.56474C28.9951 1.88573 28.726 1.23429 28.2463 0.75373C27.7666 0.273172 27.1156 0.00286111 26.4366 0.00226145C25.7576 0.00166179 25.1061 0.270823 24.6256 0.750533L14.5 10.8761L4.37442 0.750533C3.89387 0.269975 3.24209 0 2.56248 0C1.88287 0 1.23109 0.269975 0.750533 0.750533C0.269975 1.23109 0 1.88287 0 2.56248C0 3.24209 0.269975 3.89387 0.750533 4.37442L10.8761 14.5L0.750533 24.6256C0.269975 25.1061 0 25.7579 0 26.4375C0 27.1171 0.269975 27.7689 0.750533 28.2495C1.23109 28.73 1.88287 29 2.56248 29C3.24209 29 3.89387 28.73 4.37442 28.2495L14.5 18.1239L24.6256 28.2495C25.1061 28.73 25.7579 29 26.4375 29C27.1171 29 27.7689 28.73 28.2495 28.2495C28.73 27.7689 29 27.1171 29 26.4375C29 25.7579 28.73 25.1061 28.2495 24.6256L18.1175 14.5Z" fill="white"/>
</g>
</svg>
